/* XPM */
static char *_a37115cfa6842c7acee65be463207e26nJ8aHAiEpDS69yf[] = {
/* columns rows colors chars-per-pixel */
"50 50 241 2 ",
"   c #42733F",
".  c #2C574C",
"X  c #355C4D",
"o  c #2A4D55",
"O  c #2C5454",
"+  c #2E5C56",
"@  c #2C545C",
"#  c #2D5A5C",
"$  c #325353",
"%  c #335C53",
"&  c #32565A",
"*  c #335C5C",
"=  c #395F5A",
"-  c #264C4D",
";  c #2E664B",
":  c #3B654D",
">  c #3B6B4C",
",  c #32654D",
"<  c #3C724D",
"1  c #3B764B",
"2  c #2F625C",
"3  c #356354",
"4  c #3A6553",
"5  c #366B55",
"6  c #3A6D54",
"7  c #34635C",
"8  c #3B655B",
"9  c #356B5B",
"0  c #3B6C5A",
"q  c #3B7354",
"w  c #3D7B54",
"e  c #35735C",
"r  c #3B745B",
"t  c #3D7C5C",
"y  c #357758",
"u  c #2F7B47",
"i  c #2D5A63",
"p  c #2C5763",
"a  c #325C62",
"s  c #315462",
"d  c #2A4F60",
"f  c #2C6364",
"g  c #336362",
"h  c #356B62",
"j  c #396C64",
"k  c #346868",
"l  c #3B7462",
"z  c #3B7C62",
"x  c #367766",
"c  c #2F706A",
"v  c #43694B",
"b  c #43724C",
"n  c #457A4D",
"m  c #4C7D4D",
"M  c #437846",
"N  c #517E4C",
"B  c #426D55",
"V  c #437454",
"C  c #437B54",
"Z  c #4C7D53",
"A  c #437C5B",
"S  c #477859",
"D  c #507E5B",
"F  c #437C62",
"G  c #477B63",
"H  c #4F933B",
"J  c #5BA73E",
"K  c #67AB3B",
"L  c #71AC3E",
"P  c #6BB43C",
"I  c #77BA3D",
"U  c #7DC43C",
"Y  c #3B8245",
"T  c #3D835C",
"R  c #3C8656",
"E  c #2C834A",
"W  c #3C8467",
"Q  c #4A844C",
"!  c #4C8A4C",
"~  c #458748",
"^  c #53864D",
"/  c #538C4C",
"(  c #5A8D4C",
")  c #548C47",
"_  c #4B9949",
"`  c #559246",
"'  c #53944C",
"]  c #5C954D",
"[  c #559C4B",
"{  c #5C9B4C",
"}  c #5B9844",
"|  c #458454",
" . c #4B8552",
".. c #458A55",
"X. c #4B8A53",
"o. c #43845A",
"O. c #4A845A",
"+. c #448B5B",
"@. c #4B8A5A",
"#. c #548B52",
"$. c #528E5A",
"%. c #548853",
"&. c #4E9A54",
"*. c #4C925C",
"=. c #4A9559",
"-. c #549453",
";. c #5B9553",
":. c #539B54",
">. c #5B9C53",
",. c #53955C",
"<. c #549A5B",
"1. c #5C9B5B",
"2. c #59935A",
"3. c #639C4B",
"4. c #679C47",
"5. c #639D53",
"6. c #63985A",
"7. c #5CA44C",
"8. c #5EAC4A",
"9. c #58A847",
"0. c #5BB44A",
"q. c #5BA35C",
"w. c #5BA556",
"e. c #5CB354",
"r. c #4CA649",
"t. c #65A442",
"y. c #6BA444",
"u. c #65AC45",
"i. c #6BAC44",
"p. c #64A34B",
"a. c #6BA349",
"s. c #64AC4C",
"d. c #6BAC4A",
"f. c #73AC4C",
"g. c #73AB48",
"h. c #65B446",
"j. c #6CB444",
"k. c #6CBA45",
"l. c #65B44B",
"z. c #6CB44B",
"x. c #66B94B",
"c. c #6DBB4B",
"v. c #67B943",
"b. c #73B444",
"n. c #7CB345",
"m. c #75BC45",
"M. c #7BBC45",
"N. c #74B44B",
"B. c #7BB44B",
"V. c #74BC4B",
"C. c #7BBC4B",
"Z. c #62A353",
"A. c #6AA554",
"S. c #64AB52",
"D. c #6BAB53",
"F. c #6BA55A",
"G. c #64AD5B",
"H. c #6BAB5B",
"J. c #62A359",
"K. c #73AE52",
"L. c #77AB55",
"P. c #65B552",
"I. c #6BB353",
"U. c #65BA52",
"Y. c #6CBB52",
"T. c #6CB359",
"R. c #68B45D",
"E. c #74B353",
"W. c #7CB554",
"Q. c #73BB51",
"!. c #7CBC53",
"~. c #7DBA58",
"^. c #73B75C",
"/. c #458363",
"(. c #438A62",
"). c #4A8C63",
"_. c #4A8761",
"`. c #469364",
"'. c #579861",
"]. c #649861",
"[. c #59A561",
"{. c #64AA62",
"}. c #75B864",
"|. c #6DB361",
" X c #6DC14B",
".X c #6EC045",
"XX c #75C245",
"oX c #7CC344",
"OX c #74C24C",
"+X c #7CC34B",
"@X c #7BCB4C",
"#X c #7AC849",
"$X c #73C151",
"%X c #7CC451",
"&X c #79C25C",
"*X c #7CC762",
"=X c #82BB3D",
"-X c #84C33E",
";X c #89C43E",
":X c #94CC3E",
">X c #82BD45",
",X c #83BC4B",
"<X c #86B746",
"1X c #83BD53",
"2X c #84BE5B",
"3X c #86B959",
"4X c #84BA63",
"5X c #89B972",
"6X c #83C344",
"7X c #8AC544",
"8X c #85CA46",
"9X c #8CCA45",
"0X c #83C44B",
"qX c #8BC44B",
"wX c #84CA4B",
"eX c #8CCB4B",
"rX c #93CB44",
"tX c #92CD4A",
"yX c #99CF47",
"uX c #8BD34B",
"iX c #95D24B",
"pX c #83C452",
"aX c #89C454",
"sX c #83CA53",
"dX c #8BCB52",
"fX c #83C45C",
"gX c #8BC55D",
"hX c #8DCC5A",
"jX c #85C85D",
"kX c #94CB57",
"lX c #97D35B",
"zX c #A9D95D",
"xX c #8AC864",
"cX c #94C865",
"vX c #9AD463",
"bX c #A3D366",
"nX c #AADC6C",
"mX c #A8D966",
"MX c #B7DE6A",
"NX c #A7D571",
"BX c #B4E269",
/* pixels */
"H K J }.3Xt.i.] X X > L i.K L K ~.mXD.L L $ w 3 * y q / 3.t.L j.b.t.P >X;Xn.2XmXMXpXd.n.< < Q } H H ",
"r.D.2XlXmXpXp.n.a.y.K oXC.>X] ~.lXzXgXF.a.Z % O * # @ ( N.b.d.i.-Xj.8.d.B.;.I.^.pXN. .;.d.u.u.t.d.,X",
"~ A &.G.Q.q...4.>XM.b.j.m.3.h ,.q.m.,.@.^ d.Q M > < 6 $.~.M.[ i.oXj.u.j.4.r O.=.2.*.o.O.m.u.P Q >.N.",
"Y r t (.T `.e  .M.m.j.h.oX] +.l F A z z r 0XM.n.M.>Xf.' J  .` j.h.j.M.7X4.V r h ! 9 7 w +X6XL 6 w ~ ",
"4.# q 7 l 9 9 ] 8X8X6XeXeXa.o q 5 * r 5 O.eX6X7X7XqXn., R w w d.W.B.C.7X<X= 0 s & 6 5 #.9X9X=X3 5 3 ",
"K o @ p p 7 # A.8X7X>XM.0Xb.$ @ a a * # q dX0X6XM.C.n.> % % n 8.H.W.C.B.<X4 @ i # @ @ ;.qXdXB.O O o ",
"J > 5 + + 5 C B.6XB.bXH.f.M.^ 6 5 + > 5 ~ F.N.t.M.M.6X`   v } 7.:.d.p.X.3.4./ O.Q ` ' ) 3.2X'.3 . O ",
"b.6XM.>Xb.9XyXI L.kXBXlXE.B.7X6XM.j.m.a.%./ v p.qX6X9X0X6X6X[ w V Q V C X.7XeXyXC.eXyX/ -.q >.[ m.I ",
"~ 7XM.M.m.6X7X( $.[.!.Z._.O.7XM.M.k.V.i.X 1 R  .C.N.oX6XM.+X! > : 3 4 4 n 7X,X6XM.C.rX( % w ; >.;X;X",
"Y oXm.M.N.m.6X4 o.R &.| T y 7Xm.m.m.c.m.b - . %.B.b.6XM.k.XX( X $ * % % Q 6X6X6Xz.+XrXy.. O o b.-X=X",
"i.6X9XtX0XrXyXv l e o.r j S 9X+Xm.oXh.V.b.! L.nXcXf.>X7XoX#XM.{ } n ) y.C.0Xh.v.h.x.c.7XK t.i.I N.kX",
"( E.C.7Xd.V.aX( $ & d g * Z rXM.oXz.z.0X3.N.kXvXhXT.;.B.I.pX0X0X9Xm.V.C.eXm.h.k.c.x.@X0X7X7X0X4.^.aX",
"; >.d.3.' Z.z.#.2 2 i 7 8  .9Xj.h.l.8.d.A R *.S.<.+.A d.m.6X0XV.M.m.V.c.6Xb.s.h.h.OXoX6X6X6X>XV /.@.",
"; Q -.Q V X.;.w.d.p.>.a.g.f.oXj.h.j.U i.C o.e o.r z r p.qX7XV.h.v.z.V.0X0Xm.j.z.l.c.N.M.6X+XC.r t 5 ",
"O b >.1 5 O.X.3.9X7XC.0XC.B.rX-XoXoX#X0Xn * q & y r A w.S.>.oXXXXXC.0XeXeX0XV.0Xk.c.C.C.C.aXW.: t 5 ",
". , 3 5 7 3 3 a.6X9XC.j.N.N.E.b.I U XX6XZ * # i i f q [ [ [ w.0.x.c.XXm.oXm.m.oXj.I.E.i.{ Z.6.m % 3 ",
"1 b q D 6.C  .N.oX+XC.p.>.N.>.>.m.oXoX6Xa.) ! | ! C ].A.p.d.z.9.0.x.h.m.0Xz.l.m.u.W.gX' -.s.o.} Q n ",
"P b.kXvXBXxXF.qX0XeX6XC  .Q n O.p.7X#X8XM.W.rXn.N.lXnXbX1X<X1XV.k.c.V.dXeXc.V.eX' ;.6.#.C n o.B.3XkX",
"K ).[.*X&XG.C 5.oXm.7X< 3 6 C 3 { 6Xc.XXc.V.+X5.Z.H.jX^.w.@.D.V.z.S.x.Q.0XV.x.c.C | | o.1 o.[ ;.H.2X",
"_ z (.`.J.*.o.| 6XM.6Xb + 2 % 3 ] 6Xk.V.k.V.M. ./.+.1.,.,.A p.k.k.s.l.c.0XV.l.N.6 5 1 5 n X.y.q @.X.",
"J 9 T c O.F t O.8XV.0Xb.] / ` a.N.M.#X+XC.+X7Xm t w A t e A f.OXXXc.h.c.OXoXC.eX) n < ' j.M.B.4 A 0 ",
"P 4 @ * @ 0 a 2.eXc.&XeXwX0XeXeX6Xm.z.L.F.0XqX^ g 9 s 7 9 9 C.sX@XV.#X$XY.7XqXL.A.M.9XwXh.3.!.0 0 * ",
"9.q 3 h f h B ] eXeX#Xk.+X+XM.C.B.z.cXnXvXD.W. .7 g g 7 0 6 N.+XOXc.c.$X7XB.3XbXnXfXK.qXs.8.>.n & * ",
"0.L t.p...Z.1Xw.C.C.6X6XV.+XV.>X#.-.q.}.{.>. .a.4.7.-.{ p.i.V.z.6XV.c.V.N.,.R.}.dXD.@.A.s.[ >.( m m ",
"_ -XoX:Xp.7.S.r.D.Y.XXV.0XC.V.V.| o.z (.).`.y f.tX8X+XoXC.7XV.V.8XV.k.V.] A o.`.,.*.+. .6Xz.4XbXW.<X",
"E XXXX8XC | C ! D.m.v.x.V.V.eX6XN r e q r h y E.dX@X+X%Xl.V.oXoXQ.Y.OXwX3.r y l ..0 r  .z.hXhXBXhXA.",
"u oX0XeXC r w 1 z.oXV.V.+XV.+X9X( @ g i g j 9 K.eXtXwXOXXXOX8XwXeXOX+XeXb.* 5 s * r 5 O.o.q.{.^.q...",
"E m.oX>X] : % n XX XOXV.+XQ.P.8Xa.5 g g g h r N.8X9XwXXX0.XX8XoXtXB.oX0X0X5 # a g 7 9 q C o.W '.(.T ",
"s.oX!.cXvXL.<X>X#XU.OXm.N.H.T.0X+Xz.z.s.7.h.e.OXP.P.Q.U.U.wX7XM.W.bXE.n.rXi.7.:.3.N.C.y.3 ..9 A x R ",
"z.A.pXvXvXjXJ.pX0XsXQ._ s.wXc.A.,X0X%XOX.Xc.#X#X%X#XP.OX%XiXD.T.pXlXhXG.H.wXsX#Xc.dXiX>X3 # p s g # ",
"~ F =.G.w.,.T A.8X+XA.q -.S.:.+.Z.eXOXOX0.e.c.OXc. XXXOXx.V.$.=.:.G.<.+.O.pXV.@X X@X+X+Xw 0 9 h 0 0 ",
"Y A y (.o.W z $.0X0X;.q w C t y @.0XwXOXU.0.0.OXOX#XOXV.C.V. .o.t *.l T t D.OXwXx.$X$X#XC.Q.C.p.b.>X",
"} @ y * h F o.).~.fX-.9 r 9 r t >.uXsXwX8X@X@X@XuXuXwX$X$X0XV x h 9 r t O.hXOX@XU.U.OX%XdXtXqX6X9X:X",
"8.# @ i i g f O.,.,.Z.0 * 7 7 h $.wXOX+XOXOXOXsXsXsX@XOXY.%X .i a a h 2 S 0XY.@X XP.0.V.Q.1XqXC.,X7X",
"8.X.X.@.@.1.5.q o.=.5 ^ V S 9 Q s.#XY.c.Y.Y.wX%XaXhXC.OXOX+X>.C O.G ].1.6.#XY.Y. XV.#XoXI.!.pXI.N.7X",
"h.8XeX7Xc.$XuXN $ o v L.gXMXxXd.V.x.0.0.x.+XqXZ.>.aX:.c.x.eX8X9X>XS.!.D.>.eX%XOXc.%XdXoX*.G.uXS.H.rX",
"8.oXOX6Xz.$X#Xs./ %.S Q.hXbXxXG.<.I.e.P.Q.OX+X-.[ 8 ;.N.8XC.0XV.7.&.-.;.:.E.I.pXI.Y.Q.p.+.:.w.<.=.N.",
"7.V.V.oXQ.wXeXC.aXpX/.).[.R.'.`.T pX%X#XOX%X0X ./.z C B.eXwX0Xl.O.r | Z C N.0X+X%X%XsX( q C q r C #.",
"&.OX0X+XC.8XeX+XqX,Xt +.W +.l W r aXsXeX+XC.9X( + + b ,X0X6X0XI.| + 7 7 w 7XeXeXOXc.dXy.7 7 @ 7 C q ",
"R h.c.OX6X6X<X<X0X7X8 l x g /.l @.eX%X9Xn.gXcXs.n 6 Z M.Q.yX0Xc._ h * % w 0XC.9X+XoX8Xy.+ + 2 7 7 0 ",
"| c.OX0XN.~.NXxX~.qXD i a g g g O.eXdX0X-.J.A.[ z.c.#X#XeXtXeX+XC.] ) ) d.N.z.OXc.+X6XN.;.6.5XNXF.4.",
"; c.V.D.q.^.xXjXH.1.6.A r l r t >.tX0XE.S X.X.X.d.c.0XV.c.wXeX+X0XV.M.OXtXI.P.OXc.+XeX0X1.!.gXvXfX2.",
"1 j.i.O.z =.[.<._.A <XqXpXN.0XeX0XL.4XZ.S 7 w y b.z.B.k.V.9X6Xl.6X!.z.c.6X-.7.oXY.c.XXa.A :.:.}.,.@.",
"r.XXm.A T x +.z W y f.qX1XeXtXeX1X| C.5.0 V 5 | T.~.NX2Xf.qXV.h.OXz.c.0XB.#.s.7.s.m.+X{ /.w o.x `.q ",
"r.#X#X;.* 0 8 j t l 7XeXC.V.c.wXK.V -.-.Z q r A {.&XkXgXG.F.V.V.+X#X+X+XqXi.c.#XV.Y.sXf.* t i j l r ",
"0.m.oXp.* g j g h h rX0X+XV..XXXC.-.&.p.{ n q r +.&.G.1.*.@.s.8.c.V.V.V.8Xk.h.c.+XV.0XB.% g k k j * ",
"0.k.s.cXcXG 0 5 '.{.oXoXV.h.v.k.C.j.8.Q.C.b.i.! +.l F F T y w.v.I E.,Xn.7Xz.s.V.l.l.I.S.1 5 a * 8 B ",
"k.D.xXvXnXxXH.D.1.A.K.0X0XOX#X%XwXM.M.V.M.C.6X^ g 0 = j e T I.I.xXnXcX1X<XC.Q.0Xz.Q.pX6X>X6XN.{ B.,X",
"[ A ,.|.T.'._.;.| X.2.V.I.V.k.m.oXk.i.z.h.c.oX] * * 7 a g r ] q.|.fX^.6.6.K.s.C.z.D.Q.N.C.M.m.h.M.,X",
"' T e o.o.+.e C q 3 #.s.s.u.P 8.I P a.kX,Xi.=X4.: r 4 V V !  .o.| <.).O.S g.M.6X` 5.W.Q i.k.m.k.K t."
};
