/* XPM */
static char *_a566bcc93be4a68fc004bf0f2d1cfeaIWJx1C4fVTvuCeIH[] = {
/* columns rows colors chars-per-pixel */
"50 50 254 2 ",
"   c #060903",
".  c #11130E",
"X  c #191B16",
"o  c #361E0A",
"O  c #1E201A",
"+  c #3C220B",
"@  c #24271E",
"#  c #262A25",
"$  c #2A2C26",
"%  c #2C322A",
"&  c #33382B",
"*  c #363A34",
"=  c #383C37",
"-  c #551718",
";  c #6F0C0D",
":  c #492709",
">  c #532B08",
",  c #4B310E",
"<  c #59320D",
"1  c #5A3615",
"2  c #6F2513",
"3  c #623916",
"4  c #563D24",
"5  c #732B2A",
"6  c #3A4336",
"7  c #3E433C",
"8  c #3B583D",
"9  c #67401B",
"0  c #4F4F2C",
"q  c #42453E",
"w  c #424A39",
"e  c #455B37",
"r  c #69482E",
"t  c #496D3D",
"y  c #57793C",
"u  c #74732C",
"i  c #1B5652",
"p  c #3A4543",
"a  c #2D564D",
"s  c #365849",
"d  c #2A4D58",
"f  c #2D5857",
"g  c #2B535B",
"h  c #345855",
"j  c #325D5A",
"k  c #2C674E",
"l  c #38684C",
"z  c #38744C",
"x  c #346254",
"c  c #396A56",
"v  c #35635A",
"b  c #356C5B",
"n  c #3A7657",
"m  c #3D7B5C",
"M  c #2C5B62",
"N  c #335C62",
"B  c #2D6561",
"V  c #376765",
"C  c #397763",
"Z  c #444944",
"A  c #494D46",
"S  c #4A5449",
"D  c #535249",
"F  c #53544D",
"G  c #545853",
"H  c #565A52",
"J  c #5A5D55",
"K  c #6E564F",
"L  c #486948",
"P  c #47784B",
"I  c #5C6153",
"U  c #5E615A",
"Y  c #437C54",
"T  c #447858",
"R  c #527351",
"E  c #61645D",
"W  c #6F675F",
"Q  c #4A5D67",
"!  c #4F7565",
"~  c #477A64",
"^  c #666A64",
"/  c #6A6C64",
"(  c #736E63",
")  c #6D7268",
"_  c #76756C",
"`  c #617D7F",
"'  c #767971",
"]  c #7B7C73",
"[  c #880D11",
"{  c #AA151A",
"}  c #B1121B",
"|  c #8B281F",
" . c #92322E",
".. c #CE2E27",
"X. c #DF3524",
"o. c #995E31",
"O. c #AD4A34",
"+. c #896E34",
"@. c #D65133",
"#. c #E74A32",
"$. c #D06439",
"%. c #8A564C",
"&. c #A4675A",
"*. c #A97151",
"=. c #906F69",
"-. c #CE564B",
";. c #D56F5C",
":. c #D77A65",
">. c #3C803B",
",. c #518D3C",
"<. c #769038",
"1. c #5BA63C",
"2. c #68A93C",
"3. c #77A83E",
"4. c #6BB53D",
"5. c #78B73E",
"6. c #7DC23E",
"7. c #358841",
"8. c #3B8358",
"9. c #3F8963",
"0. c #48854A",
"q. c #578949",
"w. c #48964A",
"e. c #599749",
"r. c #478955",
"t. c #44835B",
"y. c #558855",
"u. c #4B9459",
"i. c #579856",
"p. c #659A48",
"a. c #6E8F53",
"s. c #659A56",
"d. c #4CA846",
"f. c #5AA648",
"g. c #5CB348",
"h. c #5BA455",
"j. c #65AC45",
"k. c #6BAC43",
"l. c #69A649",
"z. c #64AC4B",
"x. c #74AB48",
"c. c #6BB345",
"v. c #6EBA44",
"b. c #67B648",
"n. c #65B24C",
"m. c #6CB44B",
"M. c #74B544",
"N. c #7BB446",
"B. c #73BB44",
"V. c #7CBC44",
"C. c #73B44C",
"Z. c #74BC4B",
"A. c #7BBC4B",
"S. c #67AA56",
"D. c #76AB59",
"F. c #6DB456",
"G. c #78B855",
"H. c #478763",
"J. c #519369",
"K. c #719367",
"L. c #7E8278",
"P. c #5CA464",
"I. c #79AC65",
"U. c #71B065",
"Y. c #77C446",
"T. c #7CC144",
"R. c #7CC24A",
"E. c #7BC351",
"W. c #7FC26E",
"Q. c #92933E",
"!. c #AE8D39",
"~. c #87B33C",
"^. c #87C53C",
"/. c #92CA3E",
"(. c #95914B",
"). c #8CAE4D",
"_. c #83BC43",
"`. c #87BA47",
"'. c #82BD4B",
"]. c #84BA57",
"[. c #83857C",
"{. c #86897C",
"}. c #8E9177",
"|. c #AB866E",
" X c #85BB66",
".X c #8CB16E",
"XX c #D6817E",
"oX c #83C444",
"OX c #8AC444",
"+X c #8ACA46",
"@X c #83C34A",
"#X c #8AC44B",
"$X c #94CA49",
"%X c #86C556",
"&X c #94CC56",
"*X c #95D256",
"=X c #A2D65B",
"-X c #98C868",
";X c #93D262",
":X c #A6DA65",
">X c #AFD969",
",X c #B4E170",
"<X c #728983",
"1X c #858982",
"2X c #878B85",
"3X c #8B8D84",
"4X c #8D9186",
"5X c #8E9289",
"6X c #8B968E",
"7X c #939789",
"8X c #93958C",
"9X c #969B92",
"0X c #969A94",
"qX c #9A9D93",
"wX c #A19993",
"eX c #99B688",
"rX c #9DA395",
"tX c #9DA39A",
"yX c #A2A59C",
"uX c #A4AA9D",
"iX c #A5ABA2",
"pX c #A8ABA5",
"aX c #AAADA4",
"sX c #B6ABA2",
"dX c #ADB1A5",
"fX c #A8B7A7",
"gX c #ADB2AA",
"hX c #B3BBA7",
"jX c #B1B5AC",
"kX c #B4BAAD",
"lX c #B3B7B1",
"zX c #B6BBB3",
"xX c #BABDB4",
"cX c #C2948D",
"vX c #C3B9B0",
"bX c #B3C39B",
"nX c #B7C5A7",
"mX c #BCC0B5",
"MX c #BCC2BA",
"NX c #C1CFAD",
"BX c #C6C7BB",
"VX c #C3C5BC",
"CX c #C6C9BE",
"ZX c #CAD3BB",
"AX c #C6CAC0",
"SX c #CBCDC2",
"DX c #D1CDC7",
"FX c #CED1C4",
"GX c #D4D6CA",
"HX c #D8DCD2",
"JX c #E4D7CE",
"KX c #DFE3D9",
"LX c #E2E5DA",
"PX c #E9ECE5",
/* pixels */
">.1.1.U.].f.k.q.a s L 2.k.2.2.2.G.>Xx.5.5.l n a b b 0.T l.1.2.j.M.j.4._.^.k.%X>X>X#Xx.x.z l P e.,.,.",
"1.S.%X*X=XE.e.x.l.p.4.V.C._.e.G.;X=X Xs.p.0.x f v f d P M.V.c.k.^.c.f.j.N.i.m.F.@Xl.r.i.k.l.j.2.k.A.",
",.t.h.P.E.i.r.p.~.M.M.B.B.l.B i.h.oXi.r.l x.0.P a x x T G.#Xf.k.^.c.j.j.p.n t.u.e.n r.y.oXj.4.0.h.A.",
",.n m 9.t.9.m q.V.c.B.m.B.p.r.H.T T C b r.'.M.N.Q.OX~.0.1.T q.k.n.c.N.T.p.Y n n n v b Y +XT.k.c n 0.",
"e.j n j C b b i.oXZ.oX#X+Xl.h c v v b c V OX/.!.O.Q.$Xl n r.m h.#Xx.A.OXN.h v j j c v p.$X+XN.j b x ",
"2.d g d g f j i.).|.~.'.@Xk.s f g g f f i G.(.@.{ | OXs f f l f.S.%XA.S.x.c f Q K d M p.#X%Xx.g f d ",
"j.l x j v c T x.).-.2 +.Q.).P v x j l j w.a.$...{ ; +.0.L S 0.n.8.c.l.i.e.q.P )  .- I R p.].S.a a f ",
"k.V.M.M.x.A.OXM.K.(.| O.O.o.~.M.V.f.B.q.l o.X...{ [ ; u M.OXe.m Y 0.P T i.OX'.).+.2 O.| r R r.0.k.2.",
"0.OXA.R.B.^.OXq.K.i.S.p.! ! `._.B.c.@Xk.%.#.X...} [ ; 2 <.*Xe.l l x c x 0.OX`.).l.5.`.R h r.z p.^.6.",
"0.T.v.OXA.B.M.P ! m u.n t.c _.4.4.B.G.).#.#.-...{ | 5 ; 3 b.q.s a h h l 0.#XB.).M.T.+Xp.a d d 5.^.^.",
"e.T.+XOXA.OX#XR %.D b b C T oXR.B. XnX|...XXJX&.{ &.[.K ; ( e P e.0.0.p.C.@XM.+.<.b.R.B.,.p.p.~.C.#X",
"q.G.Z._.j.z.&X*...[ p v j y.+XC.V.I.VXwX .cXKX=.| &.{.K - W 7 x.V.B.C.C.+XT.Q...| p.Z.+XV.V.@Xq.F.&X",
"k e.l.p.e.h.(.@...[ - h v y.oX4.j.I.VXDXJXJXHXDXvXiX[./ D q 7 l.+Xc.Z.j.V.Q.#...[ 2 3._.OX^.N.n r.0.",
"k 0.w.Y J.K.@.#.-. .; r a.l.B.c.c. XiXaXlXzXjXiX9XL.U A = % 6 e.4.m.B.%X.X$.#.-. .; r x.x.A.C.c m b ",
"d P e.y.fXvX@.-.sX|.; %.I a.OXV.T.v.7X8XiX9X1XqX5XJ 6 = $ X e B.Y.R.R.NXsX-.@.sX%.; 5 D R %XC.s m x ",
"a x x ~ jXBX;.:.sX}.5 %.H y.C.M.5.^.}.] gX1X8XpX8XU 7 Z * . P g.g.b.T.ZXvX:.:.sX=.5 5 D L i.i.P j v ",
"z P z ! mXHXLXJXjX8X=.( H q.h.i.B.B.N.7X3X9XjX0X^ ) F = % % j.f.g.z.n.ZXSXJXGXdX3X_ J A L j.r.p.0.L ",
"4.x.$X:XZXHXPXHXjX9X] / H L P r.e.+X].rXiXzXSX% . S E A * w '.C.b.n.Z.ZXFXKXHXgX4X' H A S 0.Y `.G.=X",
"2.J.S.W.NXHXPXHXkX9XL./ H L P h e.+XF.uXjXVX8XX . O U A * 7 F.m.E.h.n.ZXFXKXGXjX8X] H A S u.u.y.S.].",
",.8.u.J.kXHXPXHXjX9XL./ H h a h e.^.G.uXjXAX2X# # $ J A = 6 e.b.6.n.n.ZXSXKXHXdX8X] H A s r.e.c Y r.",
"1.x m H.nXHXLXHXjX8XL./ H L e.l._.@X].uXgXMX2X% $ & J A = = e.%XY.Z.m.ZXFXHXHXdX4X] H A L V._.0.T c ",
"1.j j V iXSXHXAXyX[./ H A a.$X#XoXm.%XuXgXxX0XE H A F A * = '.%XE.m.m.nXVXFXAXuX{./ A = R x.S.c c j ",
"f.c f d ` 8XkXrX) D q $ @ l.R.'.l.m.-XuXdXzXdXtXdXE A A * = B.Z.B.Z.Z.I.8XdXdX8XE S = # p.f.h.c j N ",
"z.5.j.M.s.{.xXqX3X' A * & C.n._.y.i.P.tXpXzXzX2X^ H H S * * C.m.B.Z.g.U.7XmXjXyX[.S * 6 l.w.f.q.l v ",
"d.^.Y./.x.uXxXxXqXL.H * e R.R.M.T m ~ tXaXzXMXiXL.) J A * * Z.A.+XR.v.E.bXCXSXiX3XJ = t A.m.I.:X`._.",
"7.Y.Y.V.T iXCXyX= = F = & t N.OXa.K.H.tXaXgXxXxXyX] J 5X' & %XeX.XF. X.XmXFXyX* q ^ p y z.G.=X:X&XS.",
"z Y.T.@Xy.iXCXJ   . q 7 # # x.Z.K.L.Q tXaXiXgXMXjXL.H zXtX& -XkXeXA..XqXxXFX&     ^ p L Y h.P.*Xu.r.",
"k b.v.oXs.dXCXF . X q 7 # $ e a._ L.2XuXaXjXxXMXxXjXaXMXkXqXfXzXdXeXrX4XmXFX@ . . ^ 7 s n 8.J.J.C b ",
"n.A.E.=X-XnXCXH X $ A 7 # $ 7 H / ] 4XqXuXaXjXzXzXzXxXzXjXjXjXdXaXyX8X{.kXSX@ O @ ^ 7 L x r.b c C m ",
"C.s.*X;X:XnXBXU $ & A 6 # # = D E ) L.3X8XqXtXuXuXuXuXyXyXrXqXqX8X4X{.] xXSX$ $ $ / 7 y a g d N M g ",
"7.~ r.h.S.hXSXCXjX4XH 7 # = J ) _ ] 3X{.1X3X8X1X3X8X9X1X3X8X4X{.1X3X[.' kXSXCXxX4XH = t c V C V m n ",
"7.m n H.H.fXSXkXrX_ q q % H ] {.L.8XiX1X8XtXgX' qXaXgXL.tXgXrX4XtXaX3X4XxXSXkXaX] A 7 ,.M.C.C.e.k.5.",
"1.f 8.g V fXSXmX8X_ F q * ^ ' 1XqXiX0XtXgXpXtXiXgXiXtXdXjXiXyXgXlXtXyXaXVXFXFXaX[.J Z q.&X*X+XOX$X/.",
"c.f g M V pXSXCXiXL.H q * _ 3XqXgXzXgXjXMXxXdXyXyXyXiXgXMXMXzXMXAXzXgXlXCXSXSXzX3XJ p q.F.G.OXZ.@X_.",
"g.r.r.r.u.hXSXSXgX3XJ 7 * _ 5XyXgXzXxXxXxXdX3X' W ' {.8XgXMXMXVXVXMXzXzXCXFXFXxX5XU Z y C.G.%XS.N.^.",
"g.+X$X+XG.nXSXSXjX3XU 7 * ) 5XyXgXlXzXzXaX] * o o o K _ 3XgXxXMXMXMXzXzXCXFXSXxX8XE Z t u.F.+XS.S.$X",
"f.Z.m.T.G.nXSXSXjX5XU 7 * ) 5XtXaXgXjXjX1X0 o , 1 1 : K ] 0XgXmXMXMXzXlXBXFXFXxX8XE Z s r.h.h.u.i.C.",
"w.A.T.T.G.nXSXAXjX5XU 7 * ) 3XtXiXgXdXyX[.o : < 1 3 1 4 _ 1XiXzXMXxXlXjXCXFXSXxX8XE 7 p Y n n b T q.",
"w.E.#XZ.].nXSXAXjX5XU 7 * ^ 2X0XyXiXaX8X] + > 3 3 3 9 1 _ ) tXjXlXzXgXgXVXFXSXxX8X^ q e f n f b Y z ",
"8.m.v.R.@XbXSXSXjX4XU 7 * ^ 1X9XtXuXyX8X' : < 3 1 < 1 9 _ J 9XgXlXlXgXaXVXFXSXxX8XE 7 8 v j V ~ v c ",
"z n.R.A.G.hXSXSXjX4XE q & ^ [.8XqXyXrX4X' : : > < < < 9 ( S 5XaXjXgXdXiXVXFXFXxX8XU Z y s.s.-X>XI.l.",
"k j.n.S.h.nXCXCXjX4XU 7 & E [.5X9XqXqX3X' : : > < < 1 1 ( A 1XuXaXdXuXyXmXFXSXxX8XU 7 ,.J.%X&X&X].i.",
"z c.M.y.H.fXCXCXgX5XU 7 & U ] 4X8XqX8X3X' + > < > > < 1 ( A 1XtXuXiXuXqXxXSXSXxX8XE 7 s m u.h.U.u.t.",
"d.v.B.r.H.fXCXBXdX3XU 7 % U ' 3X8X8X4X{._ + : > > > > 4 ( Z ] qXyXyXtXqXxXSXCXzX5XE 7 s H.T H.9.9.m ",
"d.Y.R.e.N iXBXVXaX1XJ 6 & U ' {.4X5X4X{._ + : > : > > 4 ( 7 _ 8XqXrXqX7XkXCXCXjX4XU q t g t.B V C t.",
"d.B.B.l.V <X6X6X<XL.a.y ,.a.s.D..XK.K.K.a.0 0 w 6 e 0 e ! s s.K.I.I..X X.XeXeXeXK.R y q.g N M B V f ",
"b.v.x. X XH.T T J.U.N.T.m.m.B.B.T.4.n.C.V.k.2.l 8.T i.C m n S.c.5.G.'._.OXm.S.m.n.j.m.z.z z v j T T ",
"v.S.;X;X:X;XS.S.i.S.x.'.+XZ.R.G.+XoXV.B.M.oX+Xy.g f c V n V Y.S. X,X-X].`.A.Z.@Xz.F.%XoX#XoXC.f.'.#X",
"f.t.u.S.F.P.H.y.r.t.s.m.m.Z.B.c.Y.c.k.C.j.B.T.e.f j V N B N M.S.G.%XG.S.y.G.z.C.m.f.S.A.A.B.B.g.V.'.",
"w.8.C m t.H.n n c x q.f.z.c.4.f.5.4.l.&X'.x.^.p.l c j P P 0.q.t.Y i.u.t.T x.M.V.q.i.C.q.j.j.N.v.4.p."
};
