/* XPM */
static char *de15e8d3ea3e4baba15deef856f0dea2EFmvdVTwOKy5m8PA[] = {
/* columns rows colors chars-per-pixel */
"50 50 249 2 ",
"   c #37111A",
".  c #371C25",
"X  c #2D1B29",
"o  c #342833",
"O  c #481416",
"+  c #511C18",
"@  c #45150B",
"#  c #5B231D",
"$  c #523518",
"%  c #62281C",
"&  c #6E2E18",
"*  c #4D1A22",
"=  c #592724",
"-  c #563528",
";  c #573936",
":  c #472F2D",
">  c #652925",
",  c #673729",
"<  c #753827",
"1  c #773E34",
"2  c #6B3732",
"3  c #33691E",
"4  c #285B2B",
"5  c #285B39",
"6  c #3C442F",
"7  c #2C652C",
"8  c #346A2A",
"9  c #397727",
"0  c #2C6233",
"q  c #2C633B",
"w  c #2C6935",
"e  c #356B3C",
"r  c #346836",
"t  c #3C753C",
"y  c #3A7538",
"u  c #1F5329",
"i  c #514919",
"p  c #654D1C",
"a  c #565B25",
"s  c #4D5236",
"d  c #7B4629",
"f  c #794636",
"g  c #7B5637",
"h  c #6C4E2A",
"j  c #437A3A",
"k  c #4E6C33",
"l  c #71722F",
"z  c #3D3A48",
"x  c #493D49",
"c  c #295B46",
"v  c #2F5B4C",
"b  c #2C6348",
"n  c #326443",
"m  c #356B42",
"M  c #32644C",
"N  c #396C49",
"B  c #3A7548",
"V  c #2C6254",
"C  c #366A57",
"Z  c #3C7453",
"A  c #3C7959",
"S  c #3C7563",
"D  c #4D4D4A",
"F  c #755445",
"G  c #675550",
"H  c #447C43",
"J  c #447948",
"K  c #427C54",
"L  c #457859",
"P  c #557250",
"I  c #7C6C4D",
"U  c #437763",
"Y  c #437769",
"T  c #823D2D",
"R  c #8B4A1B",
"E  c #88482A",
"W  c #894835",
"Q  c #965836",
"!  c #935031",
"~  c #A45D37",
"^  c #9D673C",
"/  c #8E7134",
"(  c #A5662D",
")  c #A96437",
"_  c #B26C3A",
"`  c #B3773B",
"'  c #895848",
"]  c #905849",
"[  c #A25C47",
"{  c #97674A",
"}  c #946D54",
"|  c #A76746",
" . c #B97944",
".. c #A86B55",
"X. c #B67A5A",
"o. c #AC7250",
"O. c #A57561",
"+. c #BF7E60",
"@. c #987466",
"#. c #C47E4B",
"$. c #C37956",
"%. c #3B832E",
"&. c #4A873A",
"*. c #538B38",
"=. c #57953B",
"-. c #4A8B2E",
";. c #708A3A",
":. c #5AA53C",
">. c #5DA937",
",. c #66A93B",
"<. c #6BB23D",
"1. c #65B23E",
"2. c #74B73D",
"3. c #3E8255",
"4. c #3B8147",
"5. c #458343",
"6. c #45834C",
"7. c #4A854C",
"8. c #4B8847",
"9. c #548D47",
"0. c #549244",
"q. c #5B944C",
"w. c #5C994B",
"e. c #599745",
"r. c #458352",
"t. c #4A8454",
"y. c #43845B",
"u. c #4A8858",
"i. c #528C53",
"p. c #558A56",
"a. c #4C9358",
"s. c #529354",
"d. c #5B9552",
"f. c #5D9B55",
"g. c #579759",
"h. c #4F9444",
"j. c #79894B",
"k. c #629D4B",
"l. c #649C47",
"z. c #639B57",
"x. c #6F9154",
"c. c #5DA348",
"v. c #5EA159",
"b. c #64AB43",
"n. c #6AAD44",
"m. c #6CAC4B",
"M. c #65A649",
"N. c #74AC48",
"B. c #6CB443",
"V. c #6CB44B",
"C. c #6DBB4C",
"Z. c #68B445",
"A. c #73B443",
"S. c #74BB45",
"D. c #7ABC45",
"F. c #73B54B",
"G. c #79B64C",
"H. c #74BB4B",
"J. c #7ABC4B",
"K. c #7BB645",
"L. c #6BA453",
"P. c #6BAA53",
"I. c #64A45B",
"U. c #6AA45B",
"Y. c #67A757",
"T. c #75A958",
"R. c #6DB357",
"E. c #73B453",
"W. c #75BB53",
"Q. c #7BBC53",
"!. c #74B35C",
"~. c #79B45C",
"^. c #7CBC5A",
"/. c #77B858",
"(. c #4A8564",
"). c #548D62",
"_. c #589862",
"`. c #4E8170",
"'. c #649C64",
"]. c #7C9664",
"[. c #5EA264",
"{. c #69A765",
"}. c #75AB65",
"|. c #7DBB63",
" X c #78B567",
".X c #77B972",
"XX c #6BAA6D",
"oX c #7CC24D",
"OX c #78C14A",
"+X c #7CC253",
"@X c #7AC358",
"#X c #7DC066",
"$X c #8A9039",
"%X c #A29A39",
"&X c #87934B",
"*X c #B88B50",
"=X c #83BD4B",
"-X c #83BE45",
";X c #81BD54",
":X c #84BE5C",
">X c #8AB956",
",X c #8BAE51",
"<X c #84BC62",
"1X c #85BB68",
"2X c #8AB86F",
"3X c #ABB97A",
"4X c #AE995A",
"5X c #C58559",
"6X c #C99559",
"7X c #CC8D4D",
"8X c #D0A958",
"9X c #C58566",
"0X c #D19671",
"qX c #E09B6F",
"wX c #D5AE66",
"eX c #E9AA72",
"rX c #83C34D",
"tX c #87C64A",
"yX c #83C354",
"uX c #8BCB54",
"iX c #84C35C",
"pX c #89C65B",
"aX c #85C95C",
"sX c #89C956",
"dX c #8BD15F",
"fX c #84C363",
"gX c #85C36C",
"hX c #8AC867",
"jX c #93CA69",
"kX c #8AC775",
"lX c #94CD76",
"zX c #93D173",
"xX c #99D577",
"cX c #8FD074",
"vX c #A3DC79",
"bX c #A4D56D",
"nX c #A6E279",
"mX c #EBC777",
"MX c #D0B385",
"NX c #E5BE83",
"BX c #E7BA90",
"VX c #95D186",
"CX c #A7DD90",
"ZX c #ABE691",
"AX c #DED093",
"SX c #F8D588",
"DX c #F0CB8D",
"FX c #F2D8A7",
"GX c #FEE5B1",
/* pixels */
"-.c.b.+X=X,.m.e.8 3 9 N.,.,.m.,.=XbXN.~.U.0 L C C S C t.k.,.n.n.H.>.H.Q.iXN.iXnXnX:XP.U.y 9 -.=.=.=.",
"Y.e.cXzXxXhXM. XU.T.E.W.G.iX*.kXjXvXkXL.z.7.r 5 M 5 5 p.P.V.E.n.J.,.,.,./.*.P.~.^.T.&.f.Y.k.P.M.P.fX",
"6.B g.{..Xd.9.w.:XG.F.H.F.M.y s.z..Xs.i.5.U.5.j 7 r e 7.gX/.=.M.W.<.<.F.w.t 7.i.'.5.t.8.^.n.Y.&.U.!.",
"K B Z u.3.r.B 8.J.2.2.<.Q.e.B Z K t.y.B t  X!.~.|.1X}.9.f.&.&.P.F.,.D.iXz.J K Z L Z N 7.iXJ.L.r H 6.",
").5 U V C Z B d.pXtXuXtXuXT.5 C C V U Z 5.gXiXrXyXiXT.7 K 6.y Y./.F.K.:X}.4 C v v C n i.jXyX}.4 L M ",
"g.4 5 c c c 0 U.yXtXtX-XD.~.4 c c v c 5 y 1X;XtX2.rX<X3 4 0 w U.!.^.:X~.}.4 5 M M 5 5 z.<XjX{.4 5 u ",
"L.9 r w w y j /.pXK.>XN.G.<X&.y e r B r 5.}.L.M.rXD.pX*.9 8 f.I.q.}.z.q.L.e.&.j j 9.9.0.e.kXz.0 0 4 ",
"m.<X X X XgXjX/.m.xXvXxXP.!.<X<X|.I. Xq.i.7.j w.pXD.uX=X:XgX9.t H 7.J H *.jX<XhX/.fXlX*.d.t i.s. XT.",
"-.fXW.Q.F.iXfX&.f.d. XI.7.5.fXJ.H.V.F.!.4 N K 5./.A.D.OXJ.fX8.e n M N e &.hX;XrXB.Q.hX*.r L B z.;XJ.",
"-.iXA.D.D.A.~.8 t.y.t.r.(.e ^.2.S.S.B.fXy 4 4 j ~.F.tXD.<.+X9.4 5 n q 0 -.iXD.oXS.J.dX=.4 4 u |.D.tX",
"M.Q.sXuXJ.hXjXy L C U C C B fXD.J.J.B.Q.Y.&.L.CXfXF.;XyXoXyXE.=.0.j 0.k.J.J.B.B.Z.Z.J.Q.=.=.l.^.F.yX",
"*.E.F.Q.n.m.gXq.5 c c V c J hX2.oX<.<.@Xw.}.gXlXgXP.*.Q.A.oXyXiXfXE.Q.Q.sXD.,.V.C.Z.oXuXyXyX:X=.|.gX",
"7 f.Y.M.0.U.U.9.w 5 c 5 0 &.aX<.,.B.<./.t r.i.XXs.i.j ~.J.uXoXH.H.F.oXD.rXD.B.Z.C.+XoXrXuX;X~.j i.6.",
"q u.i.H B i.d.f.{.{.g.{.}.P.J.<.<.<.K.>Xk P k L Z A e z.^.oXH.B.C.B.S.H.oXA.<.b.1.B.A.D.=XQ.T.t K N ",
"c L ).J N t.7.z.hXyX^.^.^.Q.yXrXOXtX,X%Xl h h s L Z K {.M.M.C.H.C.OXoXuXuXD.S.oXC.H.Q.J.J.fX X0 L C ",
"5 n m e m m 7 k.rXuXD.F.G.N.N.=X-X-X$X%X` ) d - s s k x.q.=.b.Z.C.1.S.S.D.S.J.H.Z.V.E.M.e.k.z.H m n ",
"t y 8 j d.j *.E.rXS.iXl.e. Xw.l.,X,XwX8X_ E & % $ p h l l T.E.:.Z.Z.B.S.yXA.,.W.b.!.kX0.0.}.&.U.j j ",
" XU.2XCXZXkXL.gX+XsXiX9 9.8.H x.3XAXwX( R E Q Q | *X6X^ p l >XE.Q.F.Q.yXyXF.V./.w.w.{.5.5.8.8. X XVX",
"v.5.{..X.X{.t f.+XF.<X8 q J P 3XFXMX) ! ( ( *XwXmXmXwX^ < $ i j.&XN.G.G.+XF.V.!.B r.r.r.m 6.g.g.{..X",
"7.4.u.a._.a.u.5.^.D.fX8 0 r &XAXAXo.R ~ #.6XDXSXSX8X( R < < p l / l ;.N.>XQ.,.P.r m e e B 7.g.r i.6.",
"_.t L A (.Z Z i.fXoXJ.m.e.l 4XmX9Xd E ~  .NXGXFX6X^ ( _ ) | 6XwXwX7X| / &X,X>XiX*.y 9 0.!. X}.H t.Z ",
"{.w c b v A q g.hX2.oXpX>X$X%X7XQ < ! ~ *XDXGXMX^ Q ) ` 6XNXSXDX6X_ ! W p l >XG.m. XgXfXE.M.{.w Z M ",
"Y.8 0 q b q e I.pXuXoXK.,X$X` _ < > T Q 8XSXNX{ !  .5X6XDXFXBXX.f = * = > p ,XvXnXgXE.#XP.c.I.e n M ",
"Y.!.{.{.u.XXVXk.Q.J.yX=X&X/ ( ! # = > Q 8XmX*XE ! ) 7XNXGXAXO., . . X   > f j.1XfXP.&.P.M.=.0.8.J J ",
":.@X+XhXI.g.{.0.E.F.OX;X&X*X5X| , = # E 7X7X! < E ! 7XSXFX9X; . o o o - ' { k x.'.6.i.0.#XV.:XvXT.<X",
"%.@XS.Q.y 7.6.&.R.V.C.N.l { 5X9XO.] 1 E ( _ & # < E 6XSX0Xf . o o z G } } F 6 L (.Z K s.Y.hXzXvXxXM.",
"%.@XoXhXy B K t /.oXH.G.&Xp E [ X.+.X.5X5X| > + # E 7XeXo.= . o D I } ] 2 : v v v C M K 6.v.U..Xg.s.",
"%.R.J.iXd.w 4 5.W.S.H.Q.>X;.& & < Q 5XeXeX9X' 2 = d ` 7X! + : G @.O.' # O . D M n n N B A y.u.y.(.B ",
"m./.yXjXzXT.!.|.Q.B.+XF.,X$XE & O - | _ #.5X....{ Q ) ) E < ] O.} 1 # O + : x.q.z.T.~.z.q (.Z Y A A ",
"!.e.fXzXxXgXk.|.@XH.W.*.T.&X^ < . ; Q R R ) W ..0X9X$.o.| ....W % + > 2 > $ ].~.Q.+XpX~.0 b c c M b ",
"5.t s.[.{.s.8.v.hXiXY.j x.I | E . ; g Q ) Q % 2 ] +.0XqX9X..1 > + @ 1 f < , j.<XF.@XsXW.8 e e e t r ",
"K r.A y.3.y.A s.fX^.f.t P } 9X[ ; ; h { o.d   . - f [ X.[ > O ; F , f < W { l :XV.C.H.@X|. X XU.!.1X",
").5 A V C S A r..XkX7.N P I 9XX.W ' h - - . o z x : < W >     : F ' 1 < [ { i <XV.C.C.@XaXhXiXyXsXsX",
"'.0 5 C b M b u.'.7.'.e s s g E d { } F - : D D D D Q E > O X o - 1 1 , h i k <XW.C.Z.C.H.yXyXD.tX-X",
"c.%.&.t t g.g.t r.).B t.k k a a i p g { { ' F G D F  .#.W * : ; g g - $ a j.E.H.@XZ.OX+XE.E.W.n.F.yX",
"V.fXhXgXR.|.cX&.7 4 e XX2XCX2X}.2Xj.h $ d { O.} F g  .7X! > 2 } F - s ].T.gX@XH.C.+XdXH.=.I.kXM.m.iX",
":.W.H.Q.V.W.+Xm.*.9.7..XkXVXkX{.9. XT.;.a i g { ..o.7X#.~ W ' h : D x.'.0.|.m.F.H.H./.w.5._.{.s.d. X",
":.@XoXoXS.sXsXJ.pXkX5.s.s..Xs.a.%.kXfXiX<X&Xh p d X.qXqX9X{ , s P L t.t y gXiXaXH.aXfX&.6.B B B B 7.",
"e./.+XoX2.tXuX=XuX:XH (.A y.A y.y |.pXdX;X>XjX;.i g X.9XO.p a ].L c M n j hXyXuXoXH.iXk.q C c C L Z ",
"%.R.H.H.yXJ.K.K.=XhXt A C C S Z j kXJ.uXF.^.zXl.k a h g h a ,X~.i.q q 0 &.gXH.oXS.H.iXe.0 c N Z n N ",
"&.!.W.@XV.^.vXjX:XkXp.c V V V b j jXdXhX*.f.f.w.!.<X>X;.,XbXjXyX^.e.e.0./.F.B.+XOXoXrXG.d.z.lXCXU.U.",
"9 R.V.m.h. XkX|.U.9.z.B Z n N B e.jXiXm.H u.t.5.M.V.yXJ.2.tXrXJ.+XH.Q.Q.hXm.Z.V.V.H.oXiX0.kXkXkXkX0.",
"9 R.P.h.4.a.[._.u.H  XgX1X~.<XhXfXE.fXL.m N K t P.F.A.A.D.sXoXB.+XH.B.W./.=.c.W.C.V.@Xk.t _.[..Xt.p.",
":./.|.&.3.A (.A (.B m.yXrXyXuXuXiX-.!.I.m Z Z K U.@XvXiXF.hXB.B.oXB.H.@XV.-.b.b.Z.V.@X=.t.A y.y.y.Z ",
":.@X@Xw.5 S V S Y B :XuXrXD.S.yX~.9 0.8.t.Z Z B .X#XzXgXU.c.W.OXoXoXoX+XaX,.+X+XH.H.aXL.5 `.V C Y Y ",
"b.C.W.M.q M C C C w iXrXoXJ.S.H.fX=.w.Y.z.H B m 6.s.}.9.s.5./.,.S.J.J.J.yX,.B.C.H.+X+XL.0 M V C C c ",
"Z.H.B.gX2X7.J B p.{.Q.rXJ.S.B.H.+XB.b././.P.T.t u.A L K A B P.V.F.J.K.K.yXF.,.W.C.b.H.m.j j e e j H ",
"/.c.cXzXCXVXXXXX_.f.E.+XaXH.OX+XrXJ.oXH.F.J.fX0.q V V C A 3..XP.gXZXzXQ.;XQ.W.Q.Z.V.aXQ.fXgX Xz. XkX",
"f.%.g.{.XXg.u.).u.a.0./.W.H.B.OXoX<.B.F.B.H.pXe.m v C M M N _.d.Y.kX}.w.0.^.F.W.V.M.E.W.Q.H.E.b.W.W.",
"s.4.B r.4.u.Z A N w 8.M.b.V.B.,.oX<.,.pXJ.n.pXl.m U C U U (.r.5.8.f.i.7.y !.F.H.=.c./.-.,.B.H.S.A.,."
};
