/* XPM */
static char *_91d6c9777f0481afe053ef47ad00053Ja2nDxHNhjTdrGiM[] = {
/* columns rows colors chars-per-pixel */
"50 50 251 2 ",
"   c #170D1B",
".  c #2D1710",
"X  c #111C2D",
"o  c #162833",
"O  c #2D312D",
"+  c #0F2F09",
"@  c #4E2618",
"#  c #6B3D2F",
"$  c #503228",
"%  c #356B1E",
"&  c #334938",
"*  c #295B3A",
"=  c #395839",
"-  c #2D4F2C",
";  c #2C6536",
":  c #336838",
">  c #3B753A",
",  c #326E29",
"<  c #224722",
"1  c #534B37",
"2  c #44793B",
"3  c #487436",
"4  c #6D503C",
"5  c #0B1C4F",
"6  c #182A4D",
"7  c #2B3455",
"8  c #2F1A71",
"9  c #142D72",
"0  c #2C346F",
"q  c #191766",
"w  c #4D3A6B",
"e  c #52314F",
"r  c #1E4446",
"t  c #265A44",
"y  c #375948",
"u  c #344857",
"i  c #2F5050",
"p  c #2A6145",
"a  c #34644B",
"s  c #376946",
"d  c #3A7647",
"f  c #376A57",
"g  c #3C7252",
"h  c #3C775A",
"j  c #2B6253",
"k  c #37476C",
"l  c #3A7564",
"z  c #3A6D6E",
"x  c #4D504A",
"c  c #6C5652",
"v  c #446849",
"b  c #457847",
"n  c #447D55",
"m  c #45775A",
"M  c #567C59",
"N  c #526E51",
"B  c #6D6B5C",
"V  c #4A4F75",
"C  c #6E5972",
"Z  c #457866",
"A  c #597B69",
"S  c #457A76",
"D  c #516B6B",
"F  c #6D6F6F",
"G  c #824938",
"H  c #87655B",
"J  c #907070",
"K  c #B27768",
"L  c #8E5C60",
"P  c #3B852B",
"I  c #49863A",
"U  c #4E8D34",
"Y  c #59A53D",
"T  c #67A73D",
"R  c #76B73E",
"E  c #3D824C",
"W  c #3E8160",
"Q  c #498649",
"!  c #548A47",
"~  c #599646",
"^  c #488657",
"/  c #518A54",
"(  c #578A57",
")  c #5A9758",
"_  c #4D9351",
"`  c #659958",
"'  c #699254",
"]  c #5DA347",
"[  c #5EAA4F",
"{  c #69A949",
"}  c #74AD4D",
"|  c #6DB44B",
" . c #6CB546",
".. c #74B44C",
"X. c #75BB4C",
"o. c #78B849",
"O. c #6BA45B",
"+. c #69A756",
"@. c #73AB5B",
"#. c #6DB355",
"$. c #7AB454",
"%. c #75BB53",
"&. c #7CBC54",
"*. c #7BB45B",
"=. c #7CBD5B",
"-. c #74B759",
";. c #4A8566",
":. c #538A64",
">. c #5A9566",
",. c #558976",
"<. c #518E75",
"1. c #679B67",
"2. c #679976",
"3. c #709173",
"4. c #5EA66C",
"5. c #6AA766",
"6. c #76AB66",
"7. c #7CBB64",
"8. c #7CB46A",
"9. c #7CBC6D",
"0. c #77B466",
"q. c #6AA776",
"w. c #76AA77",
"e. c #7CBB74",
"r. c #77B678",
"t. c #6CB270",
"y. c #7CC24D",
"u. c #7AC256",
"i. c #7CC178",
"p. c #7FC360",
"a. c #83BD4C",
"s. c #83BD5C",
"d. c #82BC55",
"f. c #88966C",
"g. c #B68479",
"h. c #83BC63",
"j. c #84BA6A",
"k. c #86BB76",
"l. c #98BA79",
"z. c #89A771",
"x. c #939B65",
"c. c #C88F7E",
"v. c #86C34B",
"b. c #84C35B",
"n. c #87C558",
"m. c #84C364",
"M. c #8BC565",
"N. c #89C66B",
"B. c #92C96A",
"V. c #8CC473",
"C. c #87C577",
"Z. c #92C777",
"A. c #95D376",
"S. c #A3DC79",
"D. c #ABE57F",
"F. c #271A84",
"G. c #183892",
"H. c #352789",
"J. c #382799",
"K. c #30308F",
"L. c #352BA5",
"P. c #3B2CB3",
"I. c #1E1187",
"U. c #473591",
"Y. c #653B8A",
"T. c #4439A8",
"R. c #4535AF",
"E. c #344E90",
"W. c #395AAE",
"Q. c #4F5290",
"!. c #536A8E",
"~. c #656989",
"^. c #716D90",
"/. c #4D4CAB",
"(. c #6F56AB",
"). c #5471B1",
"_. c #6377B8",
"`. c #6D4C8D",
"'. c #4330CA",
"]. c #594FC4",
"[. c #4A6EC6",
"{. c #827287",
"}. c #A27B99",
"|. c #4B8485",
" X c #599585",
".X c #569095",
"XX c #6F908D",
"oX c #79B887",
"OX c #77B998",
"+X c #70AB8C",
"@X c #5992A9",
"#X c #7095AB",
"$X c #76B9A8",
"%X c #70ADB5",
"&X c #7EC192",
"*X c #7FC1BD",
"=X c #718ECF",
"-X c #78B7C6",
";X c #79BAD8",
":X c #71AAC8",
">X c #77BCE7",
",X c #76BCF2",
"<X c #7FC3F3",
"1X c #77C0C9",
"2X c #90908F",
"3X c #B38E95",
"4X c #87A883",
"5X c #85BC86",
"6X c #92B28E",
"7X c #8E90B1",
"8X c #A68FB0",
"9X c #8FB3AB",
"0X c #B2ADB1",
"qX c #CD958E",
"wX c #D6A395",
"eX c #DBA5A5",
"rX c #89C586",
"tX c #96C985",
"yX c #8EC891",
"uX c #AAD793",
"iX c #83C0B3",
"pX c #ACDD9A",
"aX c #86BACC",
"sX c #9DA1D8",
"dX c #C1BBC7",
"fX c #88C5D7",
"gX c #88C5C9",
"hX c #88C6E9",
"jX c #96CDEB",
"kX c #88C7F6",
"lX c #95CDF6",
"zX c #9CD3FC",
"xX c #98D3FC",
"cX c #96D0ED",
"vX c #A2D5FB",
"bX c #ACDBFC",
"nX c #A5D7FA",
"mX c #B5DDFC",
"MX c #ABC3FF",
"NX c #B5E1FF",
"BX c #BCE1FD",
"VX c #AEE0FF",
"CX c #C3E3FC",
"ZX c #CAE6FC",
"AX c #D8ECFD",
"SX c #DBF1FF",
"DX c #E8F6FF",
"FX c #F3FCFF",
"GX c #FCFFFF",
"HX c #E1E8EE",
"JX c #C9D6F8",
/* pixels */
"U ] { y.a.T { ~ % % % } T T { T a.S.} *.O.; m f f Z m ( ` { { { &.T &.s.M.} m.D.D.M.6.8.! ! ~ +.{ { ",
"+.~ V.A.A.N.{ 0.O.@.$.%.o.b.U V.B.S.Z.O.` / : * a a a ) @.$.$.{ b.$...$.h.~ @.j.h.*.! 5.0.@.0.6.8.Z.",
"Q d ) 5.t.) _ ~ s.o...X...{ > ( ` k.) ) ! 5.Q 2 , > b / C.7.~ #.m.s.d.s.` 2 / ) 1.Q / Q h.} @.! 5.8.",
"n d d ^ E ^ d ! &.R R  .&.~ n h ^ :.:.n b 8.*.*.7.k.w.( ` ! ! #.=.$.d.N.` b n m ;.g s Q b.&.+.> b Q ",
":.* Z j f g d ) n.v.v.v.n.@.* Z Z m ,.Z Q V.n.v.n.m.6.: / ^ > O.7...o.h.6.: m j j m a ( B.d.6.; m a ",
") - * t t p ; +.n.v.v.a.&.0.s f f Z Z s > 9.d.v.R n.V.b s : : 5.@.=.s.*.6.- * a a * * ` h.M.6.* * r ",
"+., : ; ; > 3 *.n.o.s.} *.k./ n m m :.b Q 6.+.{ a.d.l.M 1.b ` O.~ 6.` ~ +.~ I 2 2 ! ! ! ~ C.1.; ; ; ",
"} h.0.8.0.N.B.$.{ A.uXtX5.w.k.r.5Xw.5X) ( / 2 ~ n.s.z.< 3.uX) > b Q b b U B.h.M.=.m.Z.U ) 2 ( ) 0.@.",
"U m.%.&...b.m.I ) >.r.q.:.:.k.9.e.e.9.t.s g ^ Q =.d.z.N & 0X3.s a a g : I M.d.v. .s.B.~ v ( b 6.s.a.",
"U b. .o.o. .*., :.<.<.<. XZ oX0.9.9.0.k.b * * 2 *.$.l.N o ^.4Xs y y a ; U n.&.n.h.k.tX( v y < j.d.v.",
"{ &.n.n.o.M.V.3 ;.S |.S |.|.OXr.e.9.0.e.5./ O.uXN.$.k.' o 7 9X3.3.M ( ` &.n.$.0.w.,.z r 9XB + 6.$.n.",
"U #...&.{ { V.` f z z @X%X%XiXOXoXt.t.i.5.w.k.tXC.@.~ z.o X O & 1 f.tXj.B.N.w.;.r k E.V HXf.M ' j.N.",
", ) O.{ ! O.5.>.Z z @X>XkX<X>X-X$X+Xt.r.^ ;.>.w.>.) b z.x c H c # 1 f.l.Z.5XS 6 5 E.E.6 & N z.b / Q ",
"; ^ / b d / >.q.+X%XhXkX,X,X,X>X-X$XoXr.l <.h <.;.^ d z.B H 3XqXg.H 4 z.6Xs !.E.q 9 0 X & z.6.d n s ",
"t m >.b s ^ :.+X9XfXhXkXxXxXkX,X>X1X&XrX;.z S l ,.Z n 4X1 @ wXg.# @ 1 f.N o Q.E.G.W.k O ' k.w.; m f ",
"* s s s s g g  XaXhXkXkXlXxXxXkX,X;X$XyX<.Z Z Z ;.g d 4X1 O qXqXG @ . . B V 5 9 G.E.sXA ` ` ) b s p ",
"> > , 2 ( b >.OXfXhXlXzXvXzXxXxX<X>X-X$Xq.>.>.:.( b ` k.x . H c.K # $ . dX^._.[.W.9 u v ( 5.Q ` 2 3 ",
"0.O.k.pXpXrX+X9XfXkXzXbXbXvXzXzXlX>X;X*XoXk.yX5Xr.tXpXpX1 . # wXwX# @ $ 2XQ.=XW.E.9 D = / _ Q k.8.tX",
"4.Q 5.r.r.q.<.-XhXxXbXNXNXmXnXvXzXkX>X-X+Xe.rX5.1.5.k.l.c H c.wXK L # .   7XsX).0 k 7Xy b Q ) ) 5.e.",
"_ E ^ >.>.<..XaXlXvXmXBXCXBXmXbXvXxX,X;XOXr.rX/ ^ >.2.4XB }.qXqXqXeXqX@   ^._.E.0 6 X & / Q ) > / Q ",
") > n l ;.,.@XhXlXbXmXCXZXCXmXmXvXzXkX;X$XoXrX/ <.Z XXF C eX}.J eXK wX#   V kX_.0 7XO 3 j.0.6.b ^ g ",
"5.; t t j S @XjXlXNXCXSXSXAXmXNXvXzXlX;X$XoXyX>.f Z XXV {.sXY.`.3XL g.H F 7X=X/.7 O = z.*.{ 5.; g a ",
"+., ; p f z %XjXnXmXAXFXFXDXZXBXnXzXxX;XgXOXoX:.g m #XV U./.R.U.w e J H 2XJXsX).!.XXw.k.#.] O.: p a ",
"+.#.O.5.:.+XfXcXbXCXDXGXGXFXAXCXbXvXzXhX-X X:.w.1.2.9X^.H.R.P.J.8   c J x !.).!.u 3.( @.+.~ ~ ! b b ",
"Y u.u.N.5. XfXjXbXZXFXGXGXFXSXCXbXvXnXhX-X.X;.w.C.Z.uXF H.P.'.L.6   x 3X0Xk =X/.o y ( ) 7. .s.S.$.j.",
"P u.o.&.Q <.-XcXbXZXFXGXGXFXSXZXmXvXzXhX-X|.;.r.V.B.x.2XQ.L.P.L.V F x 0X8X7XE._.k u y 1.+.N.A.S.A.{ ",
"P u.y.M.d ,.-XlXmXZXFXGXGXGXSXCXmXzXzXhX:X|.h oXZ.l.l.2XQ.J.L.T.!.D c 3X^.sX9 0 6 ~.y M ^ ) O.e.) _ ",
"P %.o.b.) h %XcXmXZXFXGXGXFXAXCXmXzXxXhX:X!.;.r.l.x.x.1 C U.T./.E.6 C J 7 _.9 Q.7 F & m n ^ ^ ^ :.d ",
"{ =.d.B.Z.w.aXjXbXCXDXGXGXFXAXCXNXzXxXhX%X+Xq.k.f.' f.2XC 8X(.H./.8 C C Q.G.W.9 6 O = 3.s ;.h Z h h ",
"0.~ m.A.tX5X%XjXnXCXSXFXFXDXZXBXNXlXlXhX$X+Xr.C.f.' l.6Xe Y.8 U.J.H.^.w _.E./.9 7 9X- z.d a t t a p ",
"Q > _ 4.q.<.%XcXlXNXZXSXDXAXCXmXbXkXlXhX$X+Xr.k.O.z.k.4X7 U.H.T.U.(.^.7 G.G.E.7 V O 3 k.> > : : > : ",
"E ^ h ^ W  X@XjXlXbXBXZXZXCXBXNXzXkXlXhX$Xq.t.k.k.l.j.2.k K.J.R.U.(.~.!.E.E.~.~.sXu N l.8.8.0.O.@.j.",
">.* h j f |..XfXlXvXBXBXCXBXmXbXlXlXkXfXOXi.e.C.Z.N.V.n k /.J.R.U.Q.9XXX@XV k sXMX_.D 5XV.M.n.n.n.n.",
"1.; * f j l z -XcXzXNXBXBXBXNXvXlXxXhXfXOXi.i.C.Z.A.V.w.k /.J.R.K.k XXm ,.XX& D =X!.r M j.b.n.o.v.a.",
"] P I > Q >.2..XjXzXnXbXnXbXVXzXzXhXcX*XoXt.C.C.7.N.8.+Xu /.L.R.0 ~.2.1.O.tX( v D 6 o < 8.*.%.{ o.v.",
"| m.N.m.#.9.rX2.aXvXzXzXbXvXzXlXxXhXfX$Xt.e.C.+.+.e.) +X7 E.L./.0 XX6X0.+.V.V.8.1.3.v + 2 5.C.{ } M.",
"Y %.X.&.| -.i.q.$XjXnXvXzXvXzXvXlXcXiX+Xr.i.C.) >.d >.A 0 K.R.].0 XX2.5.! 7.} $.*.j.k.- - 1.1._ ) k.",
"] u.y.y.o.n.N.e.9XgXjXbXbXbXbXvXlXfXiX&Xe.i.rXb ^ ;.m A 0 H.R.].0 !.,./ 2 N.b.n.&.M.V.' + m g d d >.",
"~ u.u.y. .n.N.j.rXiXaXlXxXzXxXlXaXiX5XrXe.C.tX) ; a A D 0 H.L./.H.0 ^.A ! B.n.n.y.X.m.O.- A y f Z m ",
"P #.X.X.n.&.$.*.k.yX#X;XhXkXkX;X%X9Xe.C.e.rXtX` Q b :.D 0 U.F.J.H.q k ,.( N.o.v.o.o.n.+.M & m m s n ",
"I -.%.b.| =.S.A.e.yX X.X%X:X:X@X2.yXrXrX>.q.5.) 6.e.6XD V `.8 F.J.F.q 7 XX8.#.&.&.&.b.s.3.= tXuX6.6.",
", #.| { ~ 0.C.e.t.>.2.Z |.|.|.<.2.yXk.t.:.2.:.Q +.@.6Xx ^.(.8 F.J.J.F.q i w.+.| | &.y.N.' b Z.Z.C.` ",
"P #.+.~ E ^ 4.>.:.;.w.5XoXr.5XrXrXr.5Xq.;.Z m d #.8.XXw 8X`.H.I.F.J.J.0 7 +X+.-.| | u.{ M s 5.r.^ >.",
"Y -.7.I E l ;.h ;.h 5.N.j.j.C.C.rX` r.w.A Z g n 6.5X~.w 8Xw U.H.Q.U.K.0 D 1.O.{  .| =.~ :.m ;.^ ;.n ",
"Y u.u.~ * l j l ;.g j.N.m.7.0.i.r.( q.2.2.m m m oXXXk 0 8Xw V ~.2X{.D 3.tX@.p.u.u.X.n.+.: ,.f f Z Z ",
" .X.&.+.; a f f f : j.b.=.7.0.0.k.5.r.5X5.b b m A u 0 w }.x XX4X3.l.6XtXB. .| X.u.u.u.{ ; a f f f p ",
" .X. .m.k.Q b d ( 5.-.u.&.%.-.=.m.7.j.C.7.@.6.( XXu ^.{.F B w.6.j.l.j.s.n.o.T %.%.{ X.{ 3 b : : > b ",
"-.] A.A.uXtX5.q.) ) #.u.b.%.-.u.m.m.V.V.$.&.B.1.XX7X{.J x M k.#.V.uXA.*.s.&.&.m.#.| n.&.h.N.0.` 8.V.",
") P ) 5.t.) ^ :.^ / ~ =.%.%. .u.b.%.h.N.$.&.B.` A XXB N N v 1.) O.C.6.~ ~ h...&.#.{ -.%.&...%.} s.m.",
"_ E d ^ E ^ d h s ; Q { { |  .T y...s.A.s.{ M.` N 3.F F M :.^ Q ! ) / Q 3 *.%.&.U ] =.U T  .X.&.&.} "
};
