/* XPM */
static char *_70d02e290734fd1e8443caaa112be649eKCHTF7ISLSNHMW[] = {
/* columns rows colors chars-per-pixel */
"50 50 255 2 ",
"   c #13100F",
".  c #191819",
"X  c #231C15",
"o  c #1D231D",
"O  c #27251C",
"+  c #352A1E",
"@  c #2A3119",
"#  c #1C1C26",
"$  c #211F26",
"%  c #1B2727",
"&  c #282828",
"*  c #352D26",
"=  c #38352A",
"-  c #292A34",
";  c #2C3531",
":  c #383737",
">  c #452922",
",  c #47392A",
"<  c #443A34",
"1  c #35462C",
"2  c #394539",
"3  c #324C39",
"4  c #3B6437",
"5  c #52422E",
"6  c #494539",
"7  c #594835",
"8  c #445437",
"9  c #5B553A",
"0  c #66513A",
"q  c #68553D",
"w  c #4D6C3A",
"e  c #60613A",
"r  c #282B46",
"t  c #3B3A46",
"y  c #1E2F73",
"u  c #343D6D",
"i  c #443F44",
"p  c #364948",
"a  c #2D594D",
"s  c #365849",
"d  c #294C57",
"f  c #2D5454",
"g  c #2D5956",
"h  c #2C545C",
"j  c #2C5A5B",
"k  c #335B54",
"l  c #355758",
"z  c #335B5B",
"x  c #2C634B",
"c  c #39684B",
"v  c #3B764C",
"b  c #2D625B",
"n  c #356354",
"m  c #346B54",
"M  c #3B6C54",
"N  c #34635A",
"B  c #356B5B",
"V  c #3B6C5B",
"C  c #3B7455",
"Z  c #3B745A",
"A  c #3A7958",
"S  c #35486E",
"D  c #2C5762",
"F  c #345A62",
"G  c #2D6467",
"H  c #376764",
"J  c #3A7964",
"K  c #474648",
"L  c #554D47",
"P  c #4A5646",
"I  c #595448",
"U  c #464656",
"Y  c #4C5652",
"T  c #595856",
"R  c #614646",
"E  c #695945",
"W  c #745C42",
"Q  c #785F44",
"!  c #645D57",
"~  c #456D4C",
"^  c #5A6845",
"/  c #46774B",
"(  c #446A56",
")  c #447857",
"_  c #597555",
"`  c #7A6245",
"'  c #766249",
"]  c #7D654A",
"[  c #6C744A",
"{  c #686757",
"}  c #786754",
"|  c #697A5B",
" . c #4D5170",
".. c #615E64",
"X. c #446B66",
"o. c #526D6F",
"O. c #477A66",
"+. c #577667",
"@. c #696966",
"#. c #69796D",
"$. c #78746A",
"%. c #6F7270",
"&. c #787977",
"*. c #95362C",
"=. c #846A4B",
"-. c #8F704E",
";. c #836E56",
":. c #8A7355",
">. c #987957",
",. c #AE6959",
"<. c #8F786A",
"1. c #53933B",
"2. c #668A3E",
"3. c #5CA93E",
"4. c #68A83B",
"5. c #6AB43D",
"6. c #75B83D",
"7. c #78C03C",
"8. c #368645",
"9. c #3C8459",
"0. c #3C8565",
"q. c #48854B",
"w. c #568B4A",
"e. c #4B9547",
"r. c #5C944C",
"t. c #589949",
"y. c #448253",
"u. c #458A55",
"i. c #4C8C53",
"p. c #44835C",
"a. c #498758",
"s. c #548A57",
"d. c #4C9253",
"f. c #4B965C",
"g. c #569757",
"h. c #64894B",
"j. c #659746",
"k. c #639B4A",
"l. c #6A8456",
"z. c #649A56",
"x. c #799257",
"c. c #5BA749",
"v. c #55AE48",
"b. c #5AA656",
"n. c #66A946",
"m. c #6AAB44",
"M. c #63A34C",
"N. c #6BA44B",
"B. c #6BAB4B",
"V. c #75AB45",
"C. c #73AD4B",
"Z. c #64B647",
"A. c #6BB444",
"S. c #6DBB44",
"D. c #65B24A",
"F. c #6BB44B",
"G. c #6CBB4B",
"H. c #74B445",
"J. c #7AB543",
"K. c #74BB44",
"L. c #7BBC44",
"P. c #73B54B",
"I. c #7CB54A",
"U. c #74BB4B",
"Y. c #7BBB4C",
"T. c #68A956",
"R. c #75AA57",
"E. c #6CB455",
"W. c #68B852",
"Q. c #73BB53",
"!. c #7CBC52",
"~. c #78B758",
"^. c #488865",
"/. c #4E8E6C",
"(. c #588968",
"). c #5A9A65",
"_. c #668869",
"`. c #679467",
"'. c #748F70",
"]. c #758B76",
"[. c #58A467",
"{. c #74A666",
"}. c #71B265",
"|. c #6CC04E",
" X c #76C445",
".X c #7CC344",
"XX c #76C24B",
"oX c #7CC24A",
"OX c #7AC353",
"+X c #7BC160",
"@X c #85BE3C",
"#X c #82C33E",
"$X c #8BC53D",
"%X c #95CB3E",
"&X c #8C8750",
"*X c #A3845C",
"=X c #85AD4F",
"-X c #83BD48",
";X c #83BD54",
":X c #85BA59",
">X c #908F72",
",X c #AD906C",
"<X c #87AA6A",
"1X c #89BB67",
"2X c #98BC69",
"3X c #86A672",
"4X c #93AD75",
"5X c #A5B37C",
"6X c #84C444",
"7X c #8BC545",
"8X c #85CA47",
"9X c #8BCA44",
"0X c #82C44B",
"qX c #8AC44B",
"wX c #8CCA4B",
"eX c #92CB46",
"rX c #8BD047",
"tX c #94D14A",
"yX c #88C755",
"uX c #8AC45D",
"iX c #93C957",
"pX c #98D45C",
"aX c #A4D556",
"sX c #8AC565",
"dX c #96C867",
"fX c #97D263",
"gX c #94C574",
"hX c #ADDB69",
"jX c #B2E267",
"kX c #2C3A88",
"lX c #324493",
"zX c #596C93",
"xX c #72748B",
"cX c #5A6FB6",
"vX c #1644D1",
"bX c #5673D3",
"nX c #857F93",
"mX c #6F8B89",
"MX c #73929E",
"NX c #6686DC",
"BX c #8B8889",
"VX c #94918C",
"CX c #AD998B",
"ZX c #90AB8A",
"AX c #ADAC94",
"SX c #969FAF",
"DX c #99A9A6",
"FX c #B0ACA9",
"GX c #C7AE94",
"HX c #CCB9A3",
"JX c #AFC695",
"KX c #BBC9BC",
"LX c #C5CBA9",
"PX c #A4ABC3",
"IX c #C9CEC5",
/* pixels */
"1.m.D.1X1Xn.m.r.a s c 6.m.4.4.4.:XhXC.J.V.k C V X.(.(.`.M.m.m.m.J.t.6.-X$XV.;XhXjX0X~.4X]._ q.t.1.1.",
"3.z.fXpXhXyXk.I.N.V.6.K.U.qXs.yXpXaXdXT.j.s.n z X.X.X.z.C.P.H.n.@XA.c.M.I.s.D.~.U.P.'.-.4XT.m.4.B.qX",
"q.O.b.T.|.g.i.j.@XJ.H.K.K.n.B f.b.6Xf.i./ B.q./ n m V a.uXI.t.B.L.A.A.S.j.Z p.d.M.(.VX>.2XF.m.q.T.P.",
"q.J J ^.9.0.A w.L.6.H.F..Xj.A J ) ^.O.B C I.J.Y.L.6XC.d.c.s.i.B.U.n.L.9Xj.C A A a.].CXZXyXL.n.M A q.",
"r.z y.z H Z B r.9X.X9X7XwXV.f M m z Z C ) wX7X6X6XqXV.a 9.y.C B.!.P.I.7X=Xl V z o.>X>.3XtX7XJ.f A N ",
"1.h h D h g h M.6X6X7X-XY.L.f g d h g j m yX-X$XK.6X#Xs f k c D.E.!.-XI.-Xg j H BXFX&.R.qXwXN.f a d ",
"3.c m b b m C I.9XI.:XR.I.7X/ M m b c N 8.R.N.n.6XK.9Xw.4 c t.c.d.A.t.w.N.r.q.].,.>.{.r.r.iX).a a g ",
"V.6XL.L.H.qXeX6.T.pXhXpXT.I.6X.X6Xc.7.r.s.i./ t.7X.XeXY.6X9Xe.C ) / ~ ) i.%XdXJX,.&XaXi.r.C i.t.6.6.",
"q.9XI.L.A.6X7Xq.).f.Q.b.^.O.7XL.L.A.G.H.a v u.a.!.P.L..XL.0Xi.c n n M n q.tX5XCXAXgXeXw.n 9.v M.#X#X",
"q.#XA.L.L.A.K.c p.9.u.y.f.m -XA.6. XA.#Xc f V _.uX-XqXL.A. Xw.a f k k k i.hX,X*.>XuXeXj.p d d L.L.$X",
"n..X9XwXY.eXeX~ O.m 9.N H V 7XoX XK.A.L.n.s.ZXLXJX4X2XdXyX0XP.t.w./ w.k.1XJXCX<.{.G.U.-X1.t.k.@XH.yX",
"w.~.P.-Xn.B.yXh.f f h H z ) 9XP.6XD.F.0Xz.1XAX>X;.$.>XAXJXuX7X7X7XK.Y.N.3X' *.>X~.Z.oX7X7X6X0Xr.~.yX",
"x c.B.M.w.M.W.w.b h D h z q.9X5.n.D.D.K.O.MX$.$.FXVXL $.JXfXoXK.L.Q.x.e 6 & > <X!.oX.X6X%X6XJ.Z ^.y.",
"x i.i./ C i.t.b.N.n.t.B.C.C.K.D.A.Z.6.L.X.DXBX< VXFX! < >XuXU.Z.S.h.= q I - - l.E.F.F.L..XY.C.M Z m ",
"f / r.v M p.y.M.eX6XY.Y.L.Y.7X#X7.6X XwX`.DX&.& : T T : _ T.U. XB.8 & R K : : 2 k.Q.Y.I.Y.qX~.s Z m ",
"a x n n N M k j.6XeXU.H.U.C.R.L.7.#X XwXs.U - # O O - r _.).c.Z.1.: < E I ! &.: 3 R.P.m.t.t.g.~ c z ",
"v c m ) s.C q.P.6XG.0Xc.g.oXt.g. X X X-Xl.&.o.U : * - r | ~.F.c.4 - = , { &.FX@.= x.dXi.d.D.u.N./ ( ",
"7.V.yXjXjXsXR.eX.XwX7X) w.q./ y.n.6X8XJ.3XIXIXCXI = & $ _ :X-Xk.1 & = , E { >XVXI { <X) y.w.a.-XI.aX",
"3.^.T.}.Q.b.) z.6XU.qXM z M ( n r.6XP.j.^ AXAX$.I i * K ZX(.T.1.2 K T , 7 7 * 9 0 I (.y.m p.t.g.T.:X",
"e.J 0.f.g.^.u.y.6XU.wX( k b f k r.#XQ.h.1 ! = * L Y : &.KX_.w 1 K ..{ 5 , =   * 7 9 +.M v u.t.n a.q.",
"3.m 9.J a.J Z s.8XoXoXV.r.q.r.k.H.U.sXl.S  .. . K K K $.@.p & $ U BX;.=.5 = + + 7 E VX{.H.K.C.v p.Z ",
"5.n g D D ) F g.wXG.OX8X9XqX8XeX6X!.4XY S xX&.L : t < ! X   # # U <.>.>.' { ] 6 * I AXdXG.N.T.k V z ",
"v.k j D G D N N.yX9X XK.U.0XK.-X;XgXJX: & L FXBX: =       . # & K } -.>.` 7 ,XJXJX>X,XdXD.b.b.M z F ",
"v.6.m.M.u.T.iXg.uX;XwX.XU.qXU.wXZXKXKX: * O K &.$.! &   . - - : E ] >.*XW I 3XsXuX4X>X1XM.e.t.w./ / ",
"v.7..X%XM.t.D.g.3X`.~.sXsX:X~.=X>XVXBX- = :   : CXCXL * : K L W =.] >.-.q { ).f.T.'.>X{.6XF.1XhXI.@X",
"8..XG..XC y.y.~ P p p zXmXx.&X:.-.,XcXy $ : = $ I L < 7 E ' ] -.=.` -.=.q #.^.p./.{ ].{.M.yXpXjXfXb.",
"v 6XoXwXM A A 3 K ..u u ! :.*X,X,XGXNXvXr -  .%.E * ! :.7 ] ;.E ' Q =.] W %.X.F o.{ %.(.^.b.b.OXf.d.",
"8.S.K.7Xr.s f 3 U  .r i ] >.,X,X,XGXbXvX .<  .VXVX@.<.AX$.} } I >X} ] ;.E mXo.o.@.I #.O.) 9.^.^.^.A ",
"B.L.OXdXfXR.j.1 t - O , =.>.*X*X*X,XbXvXR E xX .zXo.6 CXHXCX} } ,X>X>X;., E | I I [ 2XN.k 9.Z ) A A ",
"U.g.yXfXpXyX~ ; U - X , ` >.>.*X*X*XcXS , } BXkXcXxX< ] ,XGXHXHXHXGX;.7 + 9 [ ^ [ 1XiXI.k j h D H j ",
"q.J f.b.b.f.3 - U & X = W -.-.>.>.=.xXT , <.nXlXNX..0 0 Q :.,XHXHX' O O & :XuXsX~.yXrXU.n H H H V N ",
"8.p.A p.0.) % - t - = * 0 =.` -.-.q @. .; VXxXcXSX6 q 7 7 =.;.FXFX=   . % :XU.OXZ.W.Q.oXL.Y.P.B.K.$X",
"t.h A z H M # - t P ( * 7 ] ` =.=.5 K zXK VXzXPX$.= 7 5 5 Q E T ..t $ # : sX|.XXW.W.|.OXyXiXqX6X9X%X",
"c.h h G G l # & : : h.; , ` ] =.q + . : L $.SXAX7 * 7 , , W W < i U - p +.fXW.XX|.W.D.G.Q.;X7XY.-X@X",
"c.) ) C ) ~ . & - ; ( T = q ` 0 + X   * L K { E 5 + , + + 0 =.] , & L `.T..XG.W.XXG.XXoXP.E.~.B.H.7X",
"Z.8XeX7XG.w . # - ; +.{ , 0 q ^ @ X X = 6 5 , * O O & = 6 7 ] =.W W x.R.T.wXOXXXG.OXtXK.a.T.rXT.T.7X",
"c.U.U.L.E.1 . # & 2 _.I 7 0 '.{.2 . = '.{.N.2.~ P Y _.3X4X6 q ` =.:.l.T.d.oXB.E.W.W.!.t.p.b.b.f.g.U.",
"c.oX.X.Xz.@ . . . : I , 6 x.'.'.& . [ iXOXOXtX) O.^.) iXdX^ 7 q W ;._.) A qXqXwXU.wXyXw.y.M M B M q.",
"t.OXoX0Xh.o & w 2.7 7 5 +././.#.. O R.tXY.0XeXr.j k ~ 7XyXh.5 q q ;.#.N ) eX8XeXOXG.yXj.g C g B ) M ",
"9.G.G.!.w o 8 V.;X[ 7 ! mXJ ^.#.O @ R.9XH.:XfXT.q.v y.6X0X<X9 ` W :.#.k A 8XU.6XU.K.9Xk.g j H X.N B ",
"q.K.XXuX^ w 2XdX1X[ 7 #.X.H H X.; @ =XtXi.g.z.{.~.oX9XXXiX2X9 =.E ' | z.I.F.D. XXXXX.XI.g.z.gXhXR.m.",
"c G.E.}.).}.sXOX}.K = +.Z b H O.p O h.T.) i.u.s.R.E.0XU.G.1X6 7 * - 6 4XwXT.T.F.F.Y.Y.qXf.yXiXiXuXf.",
"v 5.B.s.J f.[.f.(.2 = x.;XP.7XiX| ; P r.( B A Z C.U.V.A.Q.x.O O @ ; 6 3X;Xd.c. XW.G..Xk.V g.b.}.p.f.",
"v. X Xp.9.J 9.J ^.: 6 l.:X0X8XiX3X: { 8 o.) M y.R.:XhX:X~.| * w j.w E 5XR.s.c.n.D.G.oXw.p.Z 9.0.0.A ",
"v. XoXr.h A F H ^.3 : { :XK.G.oX<X: < 7 @.+.Z H }.+XpXuX{.P 1 R.Y.N.^ AXiXN..XoXU.G.yXB.h u.G G J ) ",
"v.K.L.M.j H H H H l & E 1XU.S.G.qXs.= * P +.v B 9.f.E.`._ = w b.S.B.8 >XuXZ.Z.G.XXoX0XN.z F G G H z ",
"Z.K.F.sX1X^.) C (.{.= * <XU.S.U.0X~.8 . 2 C.6.v 9.Z ^.+.& % z.A.H.h.2 >XiXP.c.U.G.D.Q.B.v ) B N ( ) ",
" Xz.fXpXhXfXR.E.g.z.8   '.sXXXOX8X0Xh.O w !.9Xw.j N H o.  ; Y.T.sXh.& ].dX!.Q.!.D.E.yX6XqX7XI.M.I.wX",
"t.) g.T.E.)./.s.i.i.s.^ | 1XS..XoXP.~.N.M.Q..Xr.N z H o.; k k.f.{.^ o P `.!.F.U.F.c.P.I.oXK.S.v.J.Y.",
"e.9.J p.9./.J A m n s.T.T.P.6.c.7.5.N.iX-Xm.$Xk.c Z n ) s.s.q.) f.`.(.(.O.I.P.J.e.z.~.w.m.A.L.K.6.n."
};
